Coordinates
version=1
nRows=11
nColumns=36
inDegrees=yes

Units are S.I. units (second, meters, Newtons, ...)
If the header above contains a line with 'inDegrees', this indicates whether rotational values are in degrees (yes) or radians (no).

endheader
time	pelvis_tilt	pelvis_list	pelvis_rotation	pelvis_tx	pelvis_ty	pelvis_tz	hip_flexion_r	hip_adduction_r	hip_rotation_r	knee_angle_r	knee_angle_r_beta	ankle_angle_r	subtalar_angle_r	mtp_angle_r	hip_flexion_l	hip_adduction_l	hip_rotation_l	knee_angle_l	knee_angle_l_beta	ankle_angle_l	subtalar_angle_l	mtp_angle_l	lumbar_extension	lumbar_bending	lumbar_rotation	arm_flex_r	arm_add_r	arm_rot_r	elbow_flex_r	pro_sup_r	arm_flex_l	arm_add_l	arm_rot_l	elbow_flex_l	pro_sup_l
      5.63333330	     22.28995850	      7.14439283	     -6.62745514	      0.69356885	      0.83700368	     -0.20040412	     35.59851686	    -16.36270593	      7.21925038	     24.49729962	      0.42755854	    -16.30117636	      4.36545163	     -7.49999987	      9.45700415	     15.69598242	     -1.06690905	     58.66793054	      1.02394855	     23.14040159	    -11.44321429	     -7.49999987	    -45.01238661	    -12.22428593	      8.61622617	     72.65658356	     12.71779059	     54.52975623	    116.40444548	     80.14334750	     61.85179864	     17.48713596	     54.17020920	    127.51940129	     70.45440175
      5.65000000	     22.64167997	      6.63478063	     -6.44303215	      0.69444554	      0.84808848	     -0.20104047	     34.15653957	    -16.27218370	      6.11691509	     23.61374896	      0.41213767	    -15.99903696	      5.24900295	     -7.49999987	      8.11861556	     15.26048904	     -0.48505273	     57.53001225	      1.00408813	     23.29052355	    -10.85917180	     -7.49999987	    -45.21959595	    -11.58143881	      9.13334987	     72.88524477	     12.14431799	     54.38534800	    116.30744780	     85.60757496	     61.46339041	     17.39143163	     53.07707116	    126.88777892	     76.01595883
      5.66666670	     22.89226319	      6.13015482	     -6.32441675	      0.69636892	      0.85890019	     -0.20097725	     32.59643298	    -16.14030613	      4.97836694	     22.48737463	      0.39247873	    -15.84484831	      6.22244244	     -7.49999987	      6.63168327	     14.77106012	      0.09492273	     55.83876918	      0.97457037	     23.15896095	    -10.41704832	     -7.49999987	    -45.18231826	    -11.10405091	      9.06059160	     72.23557773	     12.14253990	     54.63868866	    116.01620115	     84.12243150	     60.87318060	     17.04321889	     52.35373611	    126.72809642	     75.38165956
      5.68333330	     23.03465375	      5.41733686	     -6.26343620	      0.69718631	      0.85838270	     -0.20121050	     31.19501387	    -15.74214955	      4.17264760	     21.59233555	      0.37685735	    -15.59997532	      6.98570285	     -7.49999987	      5.33547268	     13.98960055	      0.51995036	     54.36057044	      0.94877094	     22.95397990	     -9.76740257	     -7.49999987	    -44.72212177	    -10.51434926	      8.98274077	     71.94947563	     12.27832055	     54.27745080	    116.13599066	     82.75561201	     60.84967090	     16.93668180	     51.77012820	    126.58149654	     74.56957639
      5.70000000	     22.93098180	      4.85695158	     -6.17580130	      0.69928198	      0.86248945	     -0.20127877	     30.26744357	    -15.43509338	      3.47535911	     21.06126353	      0.36758839	    -15.28256920	      7.60233288	     -7.49999987	      4.66670917	     13.31991710	      0.85455515	     53.23942726	      0.92920330	     22.71332028	     -9.32228961	     -7.49999987	    -44.01223827	     -9.98943046	      8.85384401	     71.27196091	     12.65711164	     54.10718057	    116.20175079	     82.00546069	     60.90234410	     16.75288692	     52.68055556	    126.95398853	     74.01430234
      5.71666670	     22.63123204	      4.36868202	     -6.16203352	      0.70080119	      0.86520725	     -0.20185692	     29.65489597	    -15.07225293	      3.03699386	     20.74365417	      0.36204506	    -15.03025899	      7.78904071	     -7.49999987	      4.32092444	     12.66707697	      0.99796942	     52.21527381	      0.91132845	     22.60618265	     -9.10578440	     -7.49999987	    -43.13995444	     -9.54901574	      9.03379041	     70.61459985	     13.13648198	     53.80711708	    116.12774720	     81.66860724	     60.69470008	     17.06211306	     53.99120194	    127.40334716	     73.90706321
      5.73333330	     22.26316337	      3.90781590	     -6.03047375	      0.70168753	      0.86819766	     -0.20113625	     29.02939477	    -14.69528678	      2.41942969	     20.37893079	      0.35567944	    -14.87124044	      8.05374908	     -7.49999987	      4.04081836	     11.94661951	      1.16776236	     51.13363042	      0.89245021	     22.58233158	     -8.88971291	     -7.49999987	    -42.11021186	     -8.98184002	      8.89596590	     69.58050568	     13.84755566	     54.04810835	    116.49372957	     81.31450664	     60.93273730	     17.06676118	     55.08076139	    128.12523996	     73.72208245
      5.75000000	     22.10617025	      3.36743233	     -5.71592527	      0.70178256	      0.87098631	     -0.20137104	     28.17104724	    -14.31327992	      1.61977509	     19.90777251	      0.34745618	    -14.80931777	      8.40584180	     -7.49999987	      3.62003300	     11.13618116	      1.35117278	     50.08762977	      0.87419405	     22.50947979	     -8.48569439	     -7.49999987	    -41.61905113	     -8.17634336	      9.24268179	     69.89529103	     13.91479876	     53.80735019	    116.68695392	     81.05516599	     61.70726500	     17.46265450	     56.45394428	    129.01924055	     73.65038788
      5.76666670	     21.92574357	      2.85767247	     -5.35204773	      0.70254514	      0.87090472	     -0.20157915	     27.45348263	    -13.87730518	      0.95352835	     19.39963755	      0.33858755	    -14.49501136	      8.66827819	     -7.49999987	      3.22071629	     10.38566776	      1.61977795	     49.12398147	      0.85737522	     22.54418380	     -7.89552451	     -7.49999987	    -41.23930483	     -7.49842142	      9.79526747	     71.19801027	     13.36716976	     53.56518942	    117.15849393	     80.60110358	     62.91964835	     18.25386125	     57.20970010	    129.74828414	     73.43641879
      5.78333330	     21.42999313	      2.51886032	     -5.14523042	      0.70323147	      0.87741577	     -0.20177854	     27.13651212	    -13.44617258	      0.56405029	     18.95703000	      0.33086259	    -13.86849485	      8.92885794	     -7.49999987	      3.03151416	      9.85515318	      1.87067565	     48.06544991	      0.83890036	     22.33888399	     -7.34954371	     -7.49999987	    -40.43536119	     -6.86799440	     10.25707230	     71.50632011	     12.76111479	     53.67773262	    117.43832583	     80.76251616	     62.90302285	     18.24825021	     57.88463966	    131.61775522	     73.68112187
      5.80000000	     21.08543168	      2.11997341	     -5.08060863	      0.70438599	      0.88428209	     -0.20159214	     26.70846663	    -12.93116372	      0.28794570	     18.53742440	      0.32353909	    -13.45151351	      9.06882626	     -7.49999987	      2.34627055	      9.35235025	      2.12040327	     46.50565947	      0.81167688	     22.12127804	     -6.80351052	     -7.49999987	    -39.50010980	     -6.38452126	     10.49993777	     71.25483777	     12.04499326	     53.83734708	    117.34733125	     80.85573641	     62.71590154	     18.29376374	     58.37311833	    133.22163730	     73.78834142
